<svg width="103" height="18" viewBox="0 0 103 18" xmlns="http://www.w3.org/2000/svg" xmlns:xlink="http://www.w3.org/1999/xlink"><defs><path id="a" d="M.01.034H102.93V17.99H.01"/></defs><g fill="none" fill-rule="evenodd"><path d="M26.718 5.075c-2.397 0-2.66 2.66-2.66 4.308 0 2.698 1.64 3.416 2.698 3.416 1.812 0 2.662-1.69 2.662-3.92 0-1.3-.132-3.805-2.7-3.805zm-4.247 8.908V.05h1.662v5.064h.038c.717-1.067 1.7-1.553 2.85-1.572 2.625 0 4.116 2.212 4.116 5.065 0 2.426-.982 5.667-4.342 5.667-1.68 0-2.38-.99-2.72-1.553h-.036v1.263H22.47zM38.178 8.8c-.264.215-.68.37-2.737.642-.81.116-2.114.368-2.114 1.65 0 1.105.547 1.765 1.793 1.765 1.548 0 3.058-1.028 3.058-2.387V8.8zm-6.08-1.88c.076-2.427 1.643-3.378 4.08-3.378.792 0 3.66.233 3.66 2.833v5.842c0 .427.21.6.55.6.15 0 .357-.038.546-.076v1.243c-.283.077-.53.194-.906.194-1.473 0-1.7-.777-1.756-1.553-.642.718-1.642 1.65-3.568 1.65-1.812 0-3.096-1.184-3.096-2.93 0-.855.245-2.834 3.002-3.183l2.737-.35c.397-.037.87-.193.87-1.202 0-1.067-.757-1.65-2.323-1.65-1.888 0-2.153 1.184-2.266 1.96h-1.53zM49.75 13.983h-1.66v-6.25c0-1.765-.492-2.658-2.115-2.658-.944 0-2.606.62-2.606 3.377v5.53h-1.662V3.833h1.567V5.27h.038c.36-.544 1.284-1.728 2.983-1.728 1.53 0 3.454.64 3.454 3.532v6.91M55.074 12.8c1.057 0 2.7-.72 2.7-3.417 0-1.65-.264-4.308-2.662-4.308-2.567 0-2.7 2.504-2.7 3.804 0 2.23.85 3.92 2.662 3.92zm4.38 1.183h-1.567v-1.398h-.038c-.718 1.378-1.85 1.69-2.813 1.69-3.36 0-4.342-3.242-4.342-5.668 0-2.853 1.49-5.065 4.115-5.065 1.793 0 2.55 1.145 2.945 1.727h.038V.05h1.66v13.933zM67.742 7.25c-.208-1.36-.944-2.175-2.34-2.175-2.06 0-2.72 2.018-2.72 3.823 0 1.747.416 3.9 2.7 3.9 1.114 0 2.077-.853 2.36-2.406h1.605c-.17 1.61-1.133 3.882-4.022 3.882-2.775 0-4.417-2.154-4.417-5.085 0-3.145 1.472-5.648 4.738-5.648 2.587 0 3.568 1.94 3.7 3.707h-1.604M76.086 8.8c-.264.215-.68.37-2.737.642-.813.116-2.115.368-2.115 1.65 0 1.105.547 1.765 1.793 1.765 1.548 0 3.058-1.028 3.058-2.387V8.8zm-6.078-1.88c.075-2.427 1.642-3.378 4.077-3.378.793 0 3.662.233 3.662 2.833v5.842c0 .427.208.6.548.6.15 0 .36-.038.548-.076v1.243c-.284.077-.53.194-.906.194-1.473 0-1.7-.777-1.756-1.553-.64.718-1.642 1.65-3.567 1.65-1.813 0-3.096-1.184-3.096-2.93 0-.855.245-2.834 3-3.183l2.74-.35c.395-.037.867-.193.867-1.202 0-1.067-.755-1.65-2.322-1.65-1.888 0-2.152 1.184-2.265 1.96h-1.53z" fill="#FFF"/><g><mask id="b" fill="#fff"><use xlink:href="#a"/></mask><path d="M79.617 3.833h1.567V5.27h.038c.358-.544 1.208-1.728 2.982-1.728 1.775 0 2.34 1.106 2.624 1.65.83-.95 1.492-1.65 3.02-1.65 1.058 0 3.06.563 3.06 3.416v7.025h-1.662v-6.56c0-1.397-.415-2.348-1.83-2.348-1.398 0-2.323 1.358-2.323 2.717v6.19H85.43V6.96c0-.854-.32-1.883-1.547-1.883-.943 0-2.605.62-2.605 3.377v5.53h-1.66V3.833M98.552 12.8c1.812 0 2.662-1.69 2.662-3.92 0-1.3-.132-3.805-2.7-3.805-2.397 0-2.662 2.66-2.662 4.308 0 2.698 1.643 3.416 2.7 3.416zm-4.285-8.967h1.566V5.27h.038c.398-.583 1.153-1.728 2.946-1.728 2.624 0 4.116 2.212 4.116 5.065 0 2.426-.982 5.667-4.342 5.667-1.322 0-2.19-.64-2.624-1.36h-.038V18h-1.66V3.833zM0 13.983L6.272.033h16.124l-6.272 13.95H0z" fill="#FFF" mask="url(#b)"/></g></g></svg>
