<svg width="21" height="17" viewBox="0 0 21 17" xmlns="http://www.w3.org/2000/svg"><path d="M15.996 7.985c-.7 0-1.202.23-1.713.463v5.28c.49.047.77.047 1.234.047 1.677 0 1.907-.767 1.907-1.84V9.413c0-.792-.263-1.428-1.428-1.428zM5.574 16.583H2.148V8.29H.436V5.433h1.712V3.717C2.148 1.387 3.114 0 5.86 0h2.287v2.858h-1.43c-1.07 0-1.14.4-1.14 1.145l-.003 1.43h2.59L7.86 8.29H5.574v8.293zm15.275-4.67c0 2.7-.773 4.67-5.45 4.67-1.687 0-2.678-.15-4.542-.436V.71l3.425-.572v5.4c.74-.275 1.698-.414 2.57-.414 3.425 0 3.996 1.535 3.996 4.003v2.785z" fill="#FFF" fill-rule="evenodd"/></svg>
