<svg width="82" height="17" viewBox="0 0 82 17" xmlns="http://www.w3.org/2000/svg"><path d="M43.996 8.133c-.7 0-1.202.23-1.713.463v5.28c.49.048.77.048 1.234.048 1.677 0 1.907-.768 1.907-1.84V9.56c0-.79-.263-1.427-1.428-1.427zM32.86 7.845c-1.164 0-1.43.64-1.43 1.43v.444h2.857v-.445c0-.79-.266-1.43-1.428-1.43zm-21.575 5.498c0 .625.295.95.947.95.7 0 1.113-.228 1.623-.462V12.58h-1.53c-.722 0-1.04.135-1.04.765zm43.544-5.21c-1.166 0-1.57.636-1.57 1.428v2.89c0 .795.404 1.433 1.57 1.433 1.162 0 1.57-.638 1.57-1.432V9.56c0-.79-.408-1.427-1.57-1.427zm-49.256 8.45H2.148V8.29H.436V5.433h1.712V3.717C2.148 1.387 3.114 0 5.86 0h2.287v2.858h-1.43c-1.07 0-1.14.4-1.14 1.145l-.003 1.43h2.59L7.86 8.29H5.574v8.293zm11.708.02h-2.855l-.124-.72c-1.303.72-2.467.838-3.235.838-2.093 0-3.208-1.398-3.208-3.332 0-2.283 1.3-3.097 3.627-3.097h2.368v-.493c0-1.164-.133-1.507-1.925-1.507H9l.287-2.857h3.202c3.93 0 4.792 1.242 4.792 4.387v6.784zm9.71-8.103c-1.777-.305-2.288-.37-3.142-.37-1.536 0-2 .337-2 1.64v2.468c0 1.304.464 1.645 2 1.645.854 0 1.365-.07 3.14-.374v2.786c-1.555.35-2.57.44-3.426.44-3.678 0-5.14-1.934-5.14-4.728v-2.002c0-2.796 1.462-4.734 5.14-4.734.857 0 1.87.092 3.427.442V8.5zm10.72 3.508H31.43v.23c0 1.304.465 1.645 2 1.645 1.38 0 2.222-.07 3.996-.374v2.786c-1.71.35-2.602.44-4.28.44-3.678 0-5.14-1.934-5.14-4.728v-2.29c0-2.443 1.084-4.446 4.853-4.446 3.768 0 4.852 1.98 4.852 4.447v2.288zm11.137.053c0 2.7-.773 4.67-5.45 4.67-1.687 0-2.678-.147-4.542-.434V.858l3.425-.572v5.4c.74-.274 1.698-.414 2.57-.414 3.425 0 3.996 1.535 3.996 4.003v2.786zm10.977.06c0 2.33-.962 4.59-4.986 4.59-4.025 0-5.005-2.26-5.005-4.59V9.87c0-2.33.98-4.59 5.006-4.59 4.025 0 4.987 2.26 4.987 4.59v2.25zm10.97 0c0 2.33-.962 4.59-4.986 4.59-4.025 0-5.005-2.26-5.005-4.59V9.87c0-2.33.98-4.59 5.006-4.59 4.025 0 4.988 2.26 4.988 4.59v2.25zm11.26 4.463h-3.713l-3.14-5.24v5.24H71.78V.858l3.425-.572V10.41l3.14-4.977h3.71l-3.426 5.43 3.426 5.72zM65.8 8.133c-1.164 0-1.568.636-1.568 1.428v2.89c0 .795.404 1.433 1.568 1.433 1.162 0 1.573-.638 1.573-1.432V9.56c0-.79-.41-1.427-1.573-1.427z" fill="#FFF" fill-rule="evenodd"/></svg>
