<svg width="31" height="31" viewBox="0 0 31 31" xmlns="http://www.w3.org/2000/svg"><path d="M15.5 0C6.94 0 0 6.94 0 15.5 0 24.06 6.94 31 15.5 31 24.06 31 31 24.06 31 15.5 31 6.94 24.06 0 15.5 0zM8.145 4.96H22.99c1.727 0 3.118 1.242 3.118 2.785v15.51c0 1.543-1.39 2.785-3.12 2.785H8.146c-1.727 0-3.117-1.242-3.117-2.785V7.745c0-1.543 1.39-2.785 3.117-2.785zm12.857 2.183c-.39 0-.702.312-.702.7v2.243c0 .388.313.7.702.7h2.242c.388 0 .7-.312.7-.7V7.843c0-.388-.312-.7-.7-.7h-2.242zm-1.896 3.97l.1.1v-.1h-.1zm-3.606.42c-2.568 0-4.65 2.08-4.65 4.65 0 2.567 2.082 4.65 4.65 4.65 2.568 0 4.65-2.083 4.65-4.65 0-2.57-2.082-4.65-4.65-4.65zm-9.3 1.745v9.662c0 1.03.83 1.86 1.86 1.86h14.88c1.03 0 1.86-.83 1.86-1.86v-9.466h-3.707c.388.81.607 1.717.607 2.675 0 3.415-2.77 6.185-6.185 6.185-3.417 0-6.186-2.77-6.186-6.186 0-1.037.255-2.014.705-2.872H6.2z" fill="#FFFFFF" fill-rule="evenodd"/></svg>
