<svg width="28" height="20" viewBox="0 0 28 20" xmlns="http://www.w3.org/2000/svg"><path d="M27.506 18.118l-7.853-8.53 7.86-7.888c.163-.163.44-.048.44.182v16.06c0 .236-.288.35-.447.176zm-11.994-4.375c-.45.453-1.062.707-1.7.707h-.02c-.65 0-1.272-.258-1.732-.718l-2.328-2.328-7.987 8.146c-.16.164-.045.44.184.44h24.253c.224 0 .342-.268.19-.434l-7.997-8.687-2.864 2.873zm-1.72-1.103c.172 0 .335-.067.456-.19L26.138.52c.162-.164.047-.442-.183-.442H1.588c-.23 0-.345.278-.182.44l11.93 11.933c.122.123.283.19.456.19zM.064 2.357V18.05c0 .232.28.346.442.18l7.948-8.105-7.95-7.95c-.163-.163-.44-.048-.44.182z" fill="#FFF" fill-rule="evenodd"/></svg>
