<svg width="134" height="16" viewBox="0 0 134 16" xmlns="http://www.w3.org/2000/svg"><path d="M.418 9.425c-.077 0-.138.06-.148.142L0 11.583l.27 1.98c.01.084.07.142.148.142.075 0 .135-.057.147-.14l.32-1.982-.32-2.016c-.01-.083-.073-.142-.147-.142zm1.518-1.1c-.013-.088-.076-.147-.154-.147s-.143.06-.154.146l-.362 3.26.362 3.186c.01.085.075.147.154.147.077 0 .14-.06.153-.147l.413-3.187-.412-3.26zm5.716-3.007c-.15 0-.272.12-.28.272l-.288 5.996.29 3.874c.007.152.13.27.278.27.148 0 .27-.12.28-.27l.326-3.874L7.93 5.59c-.007-.152-.13-.272-.278-.272zm-2.96 2.084c-.113 0-.206.09-.215.21l-.326 3.972.327 3.844c.008.12.102.208.216.208.113 0 .207-.09.217-.208l.37-3.844-.37-3.973c-.01-.118-.104-.208-.217-.208zm5.967 8.33c.183 0 .333-.148.34-.335l.284-3.81L11 3.606c-.006-.187-.156-.334-.34-.334-.187 0-.337.148-.343.335l-.252 7.982.252 3.81c.006.187.156.334.342.334zm6.154.017c.254 0 .464-.207.468-.46v.003-.003l.198-3.7-.198-9.22c-.004-.252-.214-.458-.468-.458s-.464.206-.468.46l-.177 9.215.176 3.705c.004.25.214.457.468.457zm-3.1-.016c.22 0 .398-.174.404-.397v.003l.24-3.752-.24-8.04c-.006-.222-.184-.396-.405-.396-.223 0-.4.174-.406.396l-.214 8.04.214 3.752c.005.22.183.394.406.394zM6.166 15.7c.13 0 .238-.104.248-.24l.348-3.876-.348-3.687c-.01-.136-.116-.238-.248-.238-.133 0-.24.102-.248.24l-.308 3.684.307 3.875c.008.136.114.24.247.24zm-2.935-.213c.096 0 .174-.075.185-.178l.39-3.727-.39-3.866c-.01-.104-.09-.178-.185-.178-.098 0-.175.074-.185.177l-.345 3.866.345 3.725c.01.104.087.18.185.18zM15.258 3.414c-.24 0-.433.188-.438.428l-.195 7.747.195 3.727c.005.237.197.425.438.425.24 0 .43-.188.436-.428v.003l.22-3.728-.22-7.748c-.005-.24-.197-.428-.436-.428zM9.15 15.74c.166 0 .303-.135.31-.304l.305-3.85L9.46 4.22c-.008-.17-.144-.303-.31-.303-.168 0-.304.133-.31.303l-.27 7.367.27 3.85c.006.168.142.302.31.302zm3.403-.365v-.002l.262-3.785-.262-8.25c-.006-.206-.17-.367-.373-.367-.204 0-.368.16-.374.367l-.233 8.25.233 3.788c.006.203.17.363.374.363.203 0 .367-.16.373-.364zm19.81-8.543c-.62 0-1.214.123-1.755.346C30.248 3.156 26.818 0 22.632 0c-1.024 0-2.022.198-2.903.533-.344.13-.435.265-.438.525v14.166c.003.273.22.5.49.528l12.582.007c2.506 0 4.54-2 4.54-4.464 0-2.466-2.033-4.464-4.54-4.464zm-14-5.786c-.272 0-.496.22-.5.49L17.66 11.59l.204 3.65c.003.267.227.486.5.486.272 0 .496-.22.5-.49v.005l.222-3.65-.223-10.054c-.003-.27-.227-.49-.5-.49zM44.54 7.2c-1.518-.375-1.93-.576-1.93-1.21 0-.448.343-.91 1.37-.91.875 0 1.56.375 2.174 1.038l1.382-1.412c-.904-.995-1.998-1.587-3.488-1.587-1.89 0-3.42 1.124-3.42 2.957 0 1.99 1.23 2.58 2.995 3.013 1.806.432 2.135.722 2.135 1.37 0 .766-.535 1.098-1.668 1.098-.917 0-1.78-.33-2.45-1.156l-1.38 1.3c.724 1.124 2.12 1.83 3.72 1.83 2.614 0 3.763-1.297 3.763-3.215 0-2.193-1.683-2.74-3.202-3.116zm8.812-4.08c-2.612 0-4.157 2.134-4.157 5.206 0 3.072 1.545 5.205 4.157 5.205s4.16-2.132 4.16-5.204c0-3.072-1.548-5.207-4.16-5.207zm0 8.41c-1.545 0-2.19-1.4-2.19-3.203s.645-3.202 2.19-3.202c1.547 0 2.19 1.4 2.19 3.202s-.643 3.202-2.19 3.202zm11.89-2.583c0 1.615-.755 2.61-1.97 2.61-1.22 0-1.957-1.023-1.957-2.638V3.276h-1.917v5.67c0 2.94 1.56 4.586 3.873 4.586 2.433 0 3.884-1.69 3.884-4.614V3.276H65.24v5.67zm10.175-1.4c0 .564.027 1.832.027 2.207-.123-.26-.437-.764-.67-1.14l-3.394-5.338h-1.832v10.098h1.888V8.93c0-.563-.026-1.83-.026-2.206.122.26.438.764.67 1.14l3.516 5.51h1.71V3.276h-1.89v4.272zm7.346-4.27h-2.995v10.098h2.858c2.463 0 4.9-1.5 4.9-5.05 0-3.692-2.026-5.048-4.762-5.048zm-.137 8.137h-.942V5.24h1.013c2.025 0 2.86 1.023 2.86 3.086 0 1.847-.918 3.088-2.93 3.088zm10.822-6.29c.862 0 1.41.404 1.75 1.096l1.78-.865c-.603-1.312-1.698-2.236-3.503-2.236-2.5 0-4.254 2.134-4.254 5.206 0 3.187 1.682 5.205 4.185 5.205 1.738 0 2.887-.85 3.544-2.277l-1.614-1.01c-.506.895-1.013 1.284-1.875 1.284-1.436 0-2.27-1.385-2.27-3.2-.002-1.875.822-3.204 2.257-3.204zm7.103-1.847h-1.915v10.098h5.756v-1.992h-3.842V3.277zm8.887-.158c-2.615 0-4.16 2.134-4.16 5.206 0 3.072 1.545 5.205 4.16 5.205 2.612 0 4.158-2.132 4.158-5.204 0-3.072-1.546-5.207-4.158-5.207zm0 8.41c-1.548 0-2.19-1.4-2.19-3.203s.642-3.202 2.19-3.202c1.543 0 2.186 1.4 2.186 3.202s-.642 3.202-2.185 3.202zm11.886-2.583c0 1.615-.75 2.61-1.967 2.61-1.22 0-1.957-1.023-1.957-2.638V3.276h-1.915v5.67c0 2.94 1.56 4.586 3.873 4.586 2.435 0 3.884-1.69 3.884-4.614V3.276h-1.916v5.67zm7.306-5.67h-2.994v10.098h2.858c2.463 0 4.897-1.5 4.897-5.05 0-3.692-2.024-5.048-4.76-5.048zm-.136 8.137h-.944V5.24h1.013c2.022 0 2.857 1.023 2.857 3.086 0 1.847-.917 3.088-2.927 3.088z" fill="#FFF" fill-rule="evenodd"/></svg>
