<svg width="25" height="21" viewBox="0 0 25 21" xmlns="http://www.w3.org/2000/svg"><path d="M0 17.682c0 .13.065.248.195.352.217.147.604.364 1.16.65 2.117 1.095 4.34 1.642 6.666 1.642 2.9 0 5.535-.747 7.904-2.24 1.13-.712 2.132-1.57 3.008-2.572.877-1.002 1.574-2.048 2.09-3.138.517-1.09.903-2.18 1.16-3.274.255-1.094.374-2.158.357-3.19v-.456c1.015-.73 1.81-1.563 2.382-2.5.052-.104.078-.183.078-.235 0-.11-.043-.21-.13-.298-.087-.087-.187-.13-.3-.13-.06 0-.165.034-.312.104l-.384.13c-.152.052-.282.098-.39.137-.11.04-.18.063-.216.07.226-.25.46-.59.703-1.02.244-.43.366-.745.366-.945 0-.113-.043-.21-.13-.293-.087-.082-.19-.123-.313-.123-.07 0-.14.02-.208.065-.99.53-1.914.89-2.774 1.08C19.86.5 18.608 0 17.15 0c-1.493 0-2.764.52-3.815 1.563-1.05 1.04-1.575 2.3-1.575 3.776 0 .26.017.472.052.637-1.467-.122-2.882-.474-4.245-1.055C6.202 4.34 4.978 3.56 3.893 2.578c-.252-.243-.738-.75-1.458-1.523C2.33.95 2.21.898 2.07.898c-.104 0-.212.07-.325.21-.226.337-.404.752-.534 1.242s-.194.97-.194 1.44c0 1.292.403 2.42 1.21 3.384l-.377-.182c-.218-.095-.38-.143-.483-.143-.147 0-.27.042-.37.13-.1.086-.15.2-.15.338 0 .91.234 1.775.702 2.59.468.817 1.102 1.468 1.9 1.954l-.156-.026c-.017 0-.04-.004-.07-.013-.032-.01-.056-.015-.073-.02-.016-.004-.03-.006-.038-.006-.113 0-.21.043-.293.13-.083.087-.125.182-.125.287 0 .008.01.056.026.143.296.903.787 1.67 1.473 2.298.685.63 1.488 1.052 2.41 1.27-1.512.928-3.18 1.393-5 1.393-.123 0-.318-.013-.587-.04-.365-.017-.565-.025-.6-.025-.112 0-.21.043-.292.13-.083.087-.124.186-.124.3z" fill="#FFF" fill-rule="evenodd"/></svg>
