<svg width="52" height="22" viewBox="0 0 52 22" xmlns="http://www.w3.org/2000/svg" xmlns:xlink="http://www.w3.org/1999/xlink"><defs><path id="a" d="M0 0h52v22H0V0z"/><path id="c" d="M1 0h52v22H1"/></defs><g fill="none" fill-rule="evenodd"><path d="M19 17.847h-1.792v-1.18c-.68.885-1.256 1.333-1.884 1.333-.55 0-.933-.296-1.125-.83-.117-.325-.2-.833-.2-1.578V7h1.792v8.805c.042.303.155.413.383.413.343 0 .653-.34 1.033-.95V7H19v10.847" fill="#FFF"/><g><mask id="b" fill="#fff"><use xlink:href="#a"/></mask><path d="M10.976 14.496C11.098 15.5 10.72 16 10 16c-.72 0-1.1-.5-.977-1.504v-4.02C8.9 9.47 9.28 9 10 9s1.1.47.977 1.476v4.02zM13 10.586c0-1.147-.24-2.01-.667-2.55C11.77 7.3 10.89 7 10 7c-1.006 0-1.772.3-2.333 1.035-.433.542-.665 1.413-.665 2.56L7 14.414c0 1.14.206 1.93.64 2.467C8.2 17.612 9.11 18 10 18c.89 0 1.815-.388 2.378-1.12.426-.537.622-1.326.622-2.467v-3.827zM4.5 12.296V18h-2v-5.704S.428 5.303 0 4h2.1l1.403 5.463L4.9 4H7l-2.5 8.296" fill="#FFF" mask="url(#b)"/></g><path d="M40.11 9c-.35 0-.752.158-1.108.458L39 15.542c.356.304.76.458 1.11.458.613 0 .89-.384.89-1.388v-4.314C41 9.295 40.723 9 40.11 9" fill="#FFF"/><g transform="translate(-1)"><mask id="d" fill="#fff"><use xlink:href="#c"/></mask><path d="M49 10.047C49 9.242 48.72 9 48.013 9 47.303 9 47 9.222 47 10.036V11l2-.002v-.95" fill="#FFF" mask="url(#d)"/><path d="M48.028 16.238c.486 0 .77-.26.882-.778.018-.105.015-.568.015-1.345h2.07v.303c0 .625-.05 1.067-.07 1.26-.066.43-.22.82-.46 1.162-.546.777-1.356 1.16-2.388 1.16-1.032 0-1.818-.365-2.39-1.096-.418-.535-.687-1.33-.687-2.468v-3.748c0-1.143.245-2.027.664-2.568.57-.733 1.357-1.12 2.364-1.12.99 0 1.776.387 2.33 1.12.412.54.642 1.377.642 2.52v2.19h-3.93v1.922c-.005.988.28 1.486.958 1.486zM44 14.762c0 .957-.088 1.63-.222 2.07-.27.77-.854 1.168-1.655 1.168-.715 0-1.448-.4-2.12-1.175L40 17.867h-2V4h2l-.002 4.52c.65-.744 1.385-1.168 2.125-1.168.8 0 1.34.43 1.608 1.206.135.416.27 1.085.27 2.065v4.14zm-7 3.083h-2.15v-1.193C34.033 17.548 33.34 18 32.59 18c-.662 0-1.12-.3-1.35-.84-.14-.327-.24-.84-.24-1.592V7h2.15v8.786c.05.303.186.414.46.414.41 0 .784-.342 1.24-.958V7H37v10.845zM29.556 18h-2.223V5.985H25V4.002L32 4v1.985h-2.444V18zM52.69 4.746s-.303-2.155-1.232-3.105C50.278.397 48.958.39 48.352.317 44.014 0 37.507 0 37.507 0h-.014s-6.507 0-10.845.316c-.606.073-1.927.08-3.106 1.325-.93.95-1.232 3.106-1.232 3.106S22 7.276 22 9.81v2.372c0 2.53.31 5.062.31 5.062s.303 2.155 1.232 3.105c1.18 1.245 2.728 1.205 3.418 1.336 2.48.24 10.54.314 10.54.314s6.514-.01 10.852-.326c.606-.073 1.927-.08 3.106-1.325.93-.95 1.232-3.106 1.232-3.106s.31-2.53.31-5.062V9.81c0-2.533-.31-5.064-.31-5.064z" fill="#FFF" mask="url(#d)"/></g></g></svg>
