<?xml version="1.0" encoding="UTF-8" standalone="no"?>
<svg width="694px" height="80px" viewBox="0 0 694 80" version="1.1" xmlns="http://www.w3.org/2000/svg" xmlns:xlink="http://www.w3.org/1999/xlink" xmlns:sketch="http://www.bohemiancoding.com/sketch/ns">
    <!-- Generator: Sketch 3.2.2 (9983) - http://www.bohemiancoding.com/sketch -->
    <title>1</title>
    <desc>Created with Sketch.</desc>
    <defs>
        <linearGradient x1="0%" y1="6.8359375%" x2="100%" y2="87.4169922%" id="linearGradient-1">
            <stop stop-color="#FF0048" offset="0%"></stop>
            <stop stop-color="#FF8D00" offset="100%"></stop>
        </linearGradient>
        <path d="M10.4727918,46.3229462 L10.4727918,74.7422096 L0,74.7422096 L0,4.7592068 L11.8661675,4.7592068 C17.6794201,4.7592068 22.0692589,5.16713473 25.0358156,5.98300283 C28.0323375,6.79887093 30.6692373,8.33993201 32.946594,10.6062323 C36.9319681,14.5344861 38.9246253,19.4900551 38.9246253,25.4730878 C38.9246253,31.8791633 36.7971267,36.9555998 32.5420655,40.7025496 C28.2870044,44.4494994 22.5487509,46.3229462 15.3271331,46.3229462 L10.4727918,46.3229462 Z M10.4727918,36.5325779 L14.3832334,36.5325779 C24.0020688,36.5325779 28.8114144,32.8007927 28.8114144,25.3371105 C28.8114144,18.1151669 23.8522449,14.5042493 13.9337573,14.5042493 L10.4727918,14.5042493 L10.4727918,36.5325779 Z M60.1848422,4.7592068 L60.1848422,64.815864 L80.5910545,64.815864 L80.5910545,74.7422096 L49.7120504,74.7422096 L49.7120504,4.7592068 L60.1848422,4.7592068 Z M192.609474,15.184136 L184.114377,20.2606232 C182.52622,17.4806282 181.012999,15.6676152 179.574669,14.8215297 C178.076408,13.854575 176.14368,13.3711048 173.776428,13.3711048 C170.869801,13.3711048 168.457638,14.2020691 166.539863,15.8640227 C164.622089,17.4957589 163.663217,19.550507 163.663217,22.0283286 C163.663217,25.4428877 166.180257,28.1926241 171.214414,30.2776204 L178.136345,33.1331445 C183.769807,35.4296621 187.889962,38.2322781 190.496937,41.5410765 C193.103911,44.8498749 194.407378,48.9064916 194.407378,53.7110482 C194.407378,60.147341 192.279879,65.4655125 188.024818,69.6657224 C183.739792,73.8961496 178.421045,76.0113314 172.068419,76.0113314 C166.04541,76.0113314 161.071258,74.2134269 157.145814,70.6175637 C153.280301,67.0217006 150.868137,61.9603726 149.90925,55.4334278 L160.516884,53.0764873 C160.996328,57.1860451 161.835342,60.0264322 163.03395,61.5977337 C165.191446,64.6194674 168.337747,66.1303116 172.472947,66.1303116 C175.739156,66.1303116 178.450968,65.0273954 180.608464,62.8215297 C182.765959,60.6156641 183.844691,57.8206024 183.844691,54.4362606 C183.844691,53.0764805 183.657411,51.830034 183.282846,50.6968839 C182.908281,49.5637337 182.323968,48.5212512 181.52989,47.5694051 C180.735811,46.617559 179.709518,45.7261609 178.450979,44.8951841 C177.192439,44.0642074 175.694201,43.2710142 173.956218,42.5155807 L167.259025,39.7053824 C157.760051,35.6562593 153.010635,29.73375 153.010635,21.9376771 C153.010635,16.6798604 155.003292,12.2833038 158.988666,8.74787535 C162.97404,5.18222958 167.93321,3.39943343 173.866323,3.39943343 C181.867037,3.39943343 188.114691,7.32762833 192.609474,15.184136 L192.609474,15.184136 Z M227.488815,14.6855524 L227.488815,74.7422096 L217.016023,74.7422096 L217.016023,14.6855524 L201.059624,14.6855524 L201.059624,4.7592068 L243.400267,4.7592068 L243.400267,14.6855524 L227.488815,14.6855524 Z M263.22216,4.7592068 L263.22216,74.7422096 L252.749369,74.7422096 L252.749369,4.7592068 L263.22216,4.7592068 Z M331.182938,8.52124646 L331.182938,21.0311615 C325.129964,15.9244315 318.867327,13.3711048 312.394839,13.3711048 C305.263117,13.3711048 299.255181,15.9546484 294.37085,21.121813 C289.456554,26.2587603 286.999443,32.5438722 286.999443,39.9773371 C286.999443,47.32015 289.456554,53.5146112 294.37085,58.5609065 C299.285146,63.6072018 305.308065,66.1303116 312.439787,66.1303116 C316.125509,66.1303116 319.256827,65.5259739 321.833836,64.3172805 C323.272167,63.7129337 324.762914,62.8970778 326.306123,61.8696884 C327.849332,60.8422989 329.474921,59.6034067 331.182938,58.1529745 L331.182938,70.8895184 C325.189894,74.3040775 318.897292,76.0113314 312.304944,76.0113314 C302.386457,76.0113314 293.921409,72.5212814 286.909548,65.5410765 C279.927652,58.5004369 276.436756,50.0094926 276.436756,40.0679887 C276.436756,31.1538742 279.358321,23.2068338 285.201539,16.2266289 C292.393191,7.67512249 301.697253,3.39943343 313.114001,3.39943343 C319.346767,3.39943343 325.369685,5.10668737 331.182938,8.52124646 L331.182938,8.52124646 Z M383.277211,32.6798867 L410.290722,4.7592068 L424.269427,4.7592068 L392.895999,36.4419263 L424.449217,74.7422096 L410.425564,74.7422096 L385.434696,43.6033994 L383.277211,45.7790368 L383.277211,74.7422096 L372.80442,74.7422096 L372.80442,4.7592068 L383.277211,4.7592068 L383.277211,32.6798867 Z M433.798319,74.7422096 L433.798319,0 L484.409321,53.3937677 L484.409321,4.7592068 L494.882113,4.7592068 L494.882113,79.0028329 L444.27111,25.7450425 L444.27111,74.7422096 L433.798319,74.7422096 Z M521.985518,4.7592068 L521.985518,74.7422096 L511.512727,74.7422096 L511.512727,4.7592068 L521.985518,4.7592068 Z M542.166993,4.7592068 L561.35962,53.2577904 L580.821932,4.7592068 L592.283571,4.7592068 L561.134882,80 L530.705354,4.7592068 L542.166993,4.7592068 Z M135.921555,75.3586402 L116.728928,26.8600567 L97.2666157,75.3586402 L85.8049766,75.3586402 L116.953666,0.117847025 L147.383195,75.3586402 L135.921555,75.3586402 Z M639.20887,14.6855524 L611.386303,14.6855524 L611.386303,31.5014164 L638.399813,31.5014164 L638.399813,41.427762 L611.386303,41.427762 L611.386303,64.815864 L639.20887,64.815864 L639.20887,74.7422096 L600.913511,74.7422096 L600.913511,4.7592068 L639.20887,4.7592068 L639.20887,14.6855524 Z M692.202096,15.184136 L683.706999,20.2606232 C682.118842,17.4806282 680.605621,15.6676152 679.167291,14.8215297 C677.66903,13.854575 675.736302,13.3711048 673.36905,13.3711048 C670.462423,13.3711048 668.050259,14.2020691 666.132485,15.8640227 C664.214711,17.4957589 663.255839,19.550507 663.255839,22.0283286 C663.255839,25.4428877 665.772879,28.1926241 670.807036,30.2776204 L677.728967,33.1331445 C683.362428,35.4296621 687.482584,38.2322781 690.089558,41.5410765 C692.696533,44.8498749 694,48.9064916 694,53.7110482 C694,60.147341 691.872501,65.4655125 687.61744,69.6657224 C683.332414,73.8961496 678.013667,76.0113314 671.661041,76.0113314 C665.638032,76.0113314 660.66388,74.2134269 656.738436,70.6175637 C652.872923,67.0217006 650.460759,61.9603726 649.501872,55.4334278 L660.109506,53.0764873 C660.58895,57.1860451 661.427963,60.0264322 662.626572,61.5977337 C664.784068,64.6194674 667.930369,66.1303116 672.065569,66.1303116 C675.331778,66.1303116 678.04359,65.0273954 680.201085,62.8215297 C682.358581,60.6156641 683.437313,57.8206024 683.437313,54.4362606 C683.437313,53.0764805 683.250033,51.830034 682.875468,50.6968839 C682.500903,49.5637337 681.91659,48.5212512 681.122511,47.5694051 C680.328433,46.617559 679.30214,45.7261609 678.0436,44.8951841 C676.785061,44.0642074 675.286823,43.2710142 673.54884,42.5155807 L666.851647,39.7053824 C657.352672,35.6562593 652.603256,29.73375 652.603256,21.9376771 C652.603256,16.6798604 654.595914,12.2833038 658.581288,8.74787535 C662.566662,5.18222958 667.525831,3.39943343 673.458945,3.39943343 C681.459658,3.39943343 687.707313,7.32762833 692.202096,15.184136 L692.202096,15.184136 Z" id="path-2"></path>
    </defs>
    <g id="Page-1" stroke="none" stroke-width="1" fill="none" fill-rule="evenodd" sketch:type="MSPage">
        <g id="Artboard-3" sketch:type="MSArtboardGroup" transform="translate(-1422.000000, -727.000000)">
            <g id="1" sketch:type="MSLayerGroup" transform="translate(1422.000000, 727.000000)">
                <mask id="mask-3" sketch:name="PLASTIC KNIVES" fill="white">
                    <use xlink:href="#path-2"></use>
                </mask>
                <use id="PLASTIC-KNIVES" fill="url(#linearGradient-1)" sketch:type="MSShapeGroup" xlink:href="#path-2"></use>
            </g>
        </g>
    </g>
</svg>